<svg width="24" height="24" viewBox="0 0 24 24" fill="none" xmlns="http://www.w3.org/2000/svg">
<g clip-path="url(#clip0_145_1915)">
<g filter="url(#filter0_d_145_1915)">
<circle cx="12" cy="12" r="7" fill="#D7E1E9"/>
</g>
<path d="M12 18.1191C10.684 18.1191 9.48004 17.6991 8.48604 17C8.50004 16.888 8.52804 16.7769 8.55604 16.6649C8.63946 16.3613 8.76181 16.0699 8.92004 15.7978C9.07404 15.5318 9.25604 15.2938 9.48004 15.0838C9.69004 14.8738 9.94204 14.6786 10.194 14.5246C10.46 14.3706 10.74 14.2586 11.048 14.1746C11.3584 14.091 11.6786 14.0489 12 14.0495C12.9544 14.0427 13.8736 14.4088 14.562 15.0698C14.884 15.3918 15.136 15.7698 15.318 16.2029C15.416 16.4549 15.486 16.7209 15.528 17C14.4948 17.7264 13.263 18.1171 12 18.1191ZM9.85804 11.6441C9.73468 11.3617 9.67265 11.0563 9.67604 10.7481C9.67604 10.441 9.73204 10.133 9.85804 9.85301C9.98404 9.57301 10.152 9.32188 10.362 9.11188C10.572 8.90188 10.824 8.73476 11.104 8.60876C11.384 8.48276 11.692 8.42676 12 8.42676C12.322 8.42676 12.616 8.48276 12.896 8.60876C13.176 8.73476 13.428 8.90276 13.638 9.11188C13.848 9.32188 14.016 9.57388 14.142 9.85301C14.268 10.133 14.324 10.441 14.324 10.7481C14.324 11.0701 14.268 11.3641 14.142 11.6433C14.0204 11.9191 13.8497 12.1705 13.638 12.3853C13.4233 12.5966 13.1718 12.767 12.896 12.8884C12.3175 13.1261 11.6686 13.1261 11.09 12.8884C10.8142 12.767 10.5628 12.5966 10.348 12.3853C10.1361 12.1737 9.96942 11.9221 9.85804 11.6441Z" fill="white"/>
</g>
<defs>
<filter id="filter0_d_145_1915" x="-15" y="-12" width="54" height="54" filterUnits="userSpaceOnUse" color-interpolation-filters="sRGB">
<feFlood flood-opacity="0" result="BackgroundImageFix"/>
<feColorMatrix in="SourceAlpha" type="matrix" values="0 0 0 0 0 0 0 0 0 0 0 0 0 0 0 0 0 0 127 0" result="hardAlpha"/>
<feOffset dy="3"/>
<feGaussianBlur stdDeviation="10"/>
<feComposite in2="hardAlpha" operator="out"/>
<feColorMatrix type="matrix" values="0 0 0 0 0.629931 0 0 0 0 0.718525 0 0 0 0 0.804167 0 0 0 0.2 0"/>
<feBlend mode="normal" in2="BackgroundImageFix" result="effect1_dropShadow_145_1915"/>
<feBlend mode="normal" in="SourceGraphic" in2="effect1_dropShadow_145_1915" result="shape"/>
</filter>
<clipPath id="clip0_145_1915">
<rect width="14" height="14" fill="white" transform="translate(5 5)"/>
</clipPath>
</defs>
</svg>
