<svg width="24" height="24" viewBox="0 0 24 24" fill="none" xmlns="http://www.w3.org/2000/svg">
<path d="M7.00005 13.2931C6.99969 13.1832 7.02324 13.0747 7.06897 12.9754C7.1147 12.8761 7.18145 12.7887 7.26431 12.7194L11.5496 9.1673C11.6774 9.05913 11.8377 9 12.0031 9C12.1686 9 12.3289 9.05913 12.4567 9.1673L16.742 12.8445C16.8878 12.9693 16.9796 13.1487 16.997 13.3431C17.0144 13.5376 16.9561 13.7312 16.8348 13.8814C16.7136 14.0316 16.5394 14.1261 16.3505 14.144C16.1617 14.1619 15.9736 14.1019 15.8278 13.977L11.9996 10.6896L8.17137 13.8667C8.06653 13.9566 7.93887 14.0138 7.80349 14.0313C7.66811 14.0489 7.53068 14.0262 7.40746 13.9658C7.28424 13.9055 7.18038 13.81 7.10818 13.6908C7.03598 13.5716 6.99846 13.4336 7.00005 13.2931Z" fill="#231F20"/>
</svg>
