<svg width="16" height="17" viewBox="0 0 16 17" fill="none" xmlns="http://www.w3.org/2000/svg">
<path fill-rule="evenodd" clip-rule="evenodd" d="M0.400024 8.50039C0.400024 4.30292 3.80255 0.900391 8.00002 0.900391C12.1975 0.900391 15.6 4.30292 15.6 8.50039C15.6 12.6979 12.1975 16.1004 8.00002 16.1004C3.80255 16.1004 0.400024 12.6979 0.400024 8.50039ZM8.00002 2.10039C4.4653 2.10039 1.60002 4.96566 1.60002 8.50039C1.60002 12.0351 4.4653 14.9004 8.00002 14.9004C11.5348 14.9004 14.4 12.0351 14.4 8.50039C14.4 4.96566 11.5348 2.10039 8.00002 2.10039Z" fill="#A4A4A4"/>
<path fill-rule="evenodd" clip-rule="evenodd" d="M8.00344 3.7002C8.33481 3.7002 8.60344 3.96882 8.60344 4.3002V8.25484L10.6535 10.3051C10.8878 10.5394 10.8877 10.9193 10.6534 11.1536C10.4191 11.3879 10.0392 11.3879 9.80489 11.1536L7.57915 8.92758C7.46665 8.81506 7.40344 8.66246 7.40344 8.50335V4.3002C7.40344 3.96882 7.67207 3.7002 8.00344 3.7002Z" fill="#A4A4A4"/>
</svg>
