<svg width="16" height="16" viewBox="0 0 16 16" fill="none" xmlns="http://www.w3.org/2000/svg">
<path d="M12.6667 5.11111H6.25004M5.08337 5.11111H3.33337M12.6667 10.6667H6.25004M5.08337 10.6667H3.33337M9.75004 7.88889H3.33337M12.6667 7.88889H10.9167M5.66671 4C5.82142 4 5.96979 4.05853 6.07919 4.16272C6.18858 4.26691 6.25004 4.40821 6.25004 4.55556V5.66667C6.25004 5.81401 6.18858 5.95532 6.07919 6.0595C5.96979 6.16369 5.82142 6.22222 5.66671 6.22222C5.512 6.22222 5.36362 6.16369 5.25423 6.0595C5.14483 5.95532 5.08337 5.81401 5.08337 5.66667V4.55556C5.08337 4.40821 5.14483 4.26691 5.25423 4.16272C5.36362 4.05853 5.512 4 5.66671 4ZM5.66671 9.55556C5.82142 9.55556 5.96979 9.61409 6.07919 9.71827C6.18858 9.82246 6.25004 9.96377 6.25004 10.1111V11.2222C6.25004 11.3696 6.18858 11.5109 6.07919 11.6151C5.96979 11.7192 5.82142 11.7778 5.66671 11.7778C5.512 11.7778 5.36362 11.7192 5.25423 11.6151C5.14483 11.5109 5.08337 11.3696 5.08337 11.2222V10.1111C5.08337 9.96377 5.14483 9.82246 5.25423 9.71827C5.36362 9.61409 5.512 9.55556 5.66671 9.55556ZM10.3334 6.77778C10.4881 6.77778 10.6365 6.83631 10.7459 6.9405C10.8552 7.04468 10.9167 7.18599 10.9167 7.33333V8.44444C10.9167 8.59179 10.8552 8.73309 10.7459 8.83728C10.6365 8.94147 10.4881 9 10.3334 9C10.1787 9 10.0303 8.94147 9.9209 8.83728C9.8115 8.73309 9.75004 8.59179 9.75004 8.44444V7.33333C9.75004 7.18599 9.8115 7.04468 9.9209 6.9405C10.0303 6.83631 10.1787 6.77778 10.3334 6.77778Z" stroke="#3D4045" stroke-width="1.2" stroke-linecap="round" stroke-linejoin="round"/>
</svg>
