<svg width="16" height="16" viewBox="0 0 16 16" fill="none" xmlns="http://www.w3.org/2000/svg">
<path d="M8.00002 13.3337C6.51113 13.3337 5.25002 12.817 4.21669 11.7837C3.18335 10.7503 2.66669 9.48921 2.66669 8.00033C2.66669 6.51144 3.18335 5.25033 4.21669 4.21699C5.25002 3.18366 6.51113 2.66699 8.00002 2.66699C8.76669 2.66699 9.50002 2.82521 10.2 3.14166C10.9 3.4581 11.5 3.91099 12 4.50033V2.66699H13.3334V7.33366H8.66669V6.00033H11.4667C11.1111 5.3781 10.6251 4.88921 10.0087 4.53366C9.39224 4.1781 8.72269 4.00033 8.00002 4.00033C6.88891 4.00033 5.94446 4.38921 5.16669 5.16699C4.38891 5.94477 4.00002 6.88921 4.00002 8.00033C4.00002 9.11144 4.38891 10.0559 5.16669 10.8337C5.94446 11.6114 6.88891 12.0003 8.00002 12.0003C8.85558 12.0003 9.6278 11.7559 10.3167 11.267C11.0056 10.7781 11.4889 10.1337 11.7667 9.33366H13.1667C12.8556 10.5114 12.2222 11.4725 11.2667 12.217C10.3111 12.9614 9.22224 13.3337 8.00002 13.3337Z" fill="#3D4045"/>
</svg>
